<?xml version="1.0" encoding="UTF-8"?>
<svg xmlns="http://www.w3.org/2000/svg" xmlns:xlink="http://www.w3.org/1999/xlink" width="48px" height="48px" viewBox="0 0 48 48" version="1.1">
<g id="surface1">
<path style=" stroke:none;fill-rule:nonzero;fill:rgb(100%,100%,100%);fill-opacity:1;" d="M 3.371094 -0.191406 C 3.738281 -0.199219 4.105469 -0.203125 4.492188 -0.207031 C 4.886719 -0.207031 5.285156 -0.203125 5.695312 -0.199219 C 6.308594 -0.203125 6.308594 -0.203125 6.941406 -0.203125 C 7.808594 -0.207031 8.675781 -0.203125 9.542969 -0.195312 C 10.871094 -0.1875 12.199219 -0.195312 13.527344 -0.207031 C 14.371094 -0.207031 15.210938 -0.203125 16.054688 -0.199219 C 16.453125 -0.203125 16.847656 -0.207031 17.257812 -0.207031 C 17.628906 -0.207031 18 -0.199219 18.378906 -0.191406 C 18.871094 -0.191406 18.871094 -0.191406 19.367188 -0.191406 C 20.644531 0.0859375 21.023438 0.402344 21.75 1.5 C 21.972656 2.765625 21.957031 4.011719 21.941406 5.296875 C 21.945312 5.679688 21.949219 6.066406 21.953125 6.464844 C 21.957031 7.738281 21.957031 9.015625 21.949219 10.289062 C 21.949219 11.175781 21.953125 12.058594 21.953125 12.945312 C 21.957031 14.800781 21.953125 16.660156 21.945312 18.511719 C 21.9375 20.894531 21.941406 23.277344 21.953125 25.65625 C 21.957031 27.484375 21.957031 29.316406 21.953125 31.144531 C 21.949219 32.019531 21.953125 32.898438 21.957031 33.777344 C 21.957031 35 21.953125 36.230469 21.941406 37.457031 C 21.945312 37.820312 21.949219 38.183594 21.953125 38.558594 C 21.921875 40.988281 21.921875 40.988281 21.105469 42.226562 C 20.109375 42.839844 19.546875 42.941406 18.378906 42.941406 C 18.011719 42.949219 17.644531 42.953125 17.257812 42.957031 C 16.863281 42.957031 16.464844 42.953125 16.054688 42.949219 C 15.644531 42.949219 15.234375 42.953125 14.808594 42.953125 C 13.941406 42.957031 13.074219 42.953125 12.207031 42.945312 C 10.878906 42.9375 9.550781 42.945312 8.222656 42.957031 C 7.378906 42.957031 6.539062 42.953125 5.695312 42.949219 C 5.097656 42.957031 5.097656 42.957031 4.492188 42.957031 C 4.121094 42.957031 3.75 42.949219 3.371094 42.941406 C 3.042969 42.941406 2.714844 42.941406 2.382812 42.941406 C 1.105469 42.664062 0.726562 42.347656 0 41.25 C -0.222656 39.984375 -0.207031 38.738281 -0.191406 37.457031 C -0.195312 37.070312 -0.199219 36.683594 -0.203125 36.285156 C -0.207031 35.011719 -0.207031 33.734375 -0.199219 32.460938 C -0.199219 31.574219 -0.203125 30.691406 -0.203125 29.804688 C -0.207031 27.949219 -0.203125 26.089844 -0.195312 24.238281 C -0.1875 21.855469 -0.191406 19.472656 -0.203125 17.09375 C -0.207031 15.265625 -0.207031 13.433594 -0.203125 11.605469 C -0.199219 10.730469 -0.203125 9.851562 -0.207031 8.972656 C -0.207031 7.75 -0.203125 6.519531 -0.191406 5.296875 C -0.195312 4.929688 -0.199219 4.566406 -0.203125 4.191406 C -0.171875 1.761719 -0.171875 1.761719 0.644531 0.523438 C 1.640625 -0.0898438 2.203125 -0.191406 3.371094 -0.191406 Z M 3.371094 -0.191406 "/>
<path style=" stroke:none;fill-rule:nonzero;fill:rgb(100%,100%,100%);fill-opacity:1;" d="M 29.621094 18.183594 C 29.988281 18.175781 30.355469 18.171875 30.742188 18.167969 C 31.136719 18.167969 31.535156 18.171875 31.945312 18.175781 C 32.558594 18.171875 32.558594 18.171875 33.191406 18.171875 C 34.058594 18.167969 34.925781 18.171875 35.792969 18.179688 C 37.121094 18.1875 38.449219 18.179688 39.777344 18.167969 C 40.621094 18.167969 41.460938 18.171875 42.304688 18.175781 C 42.703125 18.171875 43.097656 18.167969 43.507812 18.167969 C 43.878906 18.167969 44.25 18.175781 44.628906 18.183594 C 45.121094 18.183594 45.121094 18.183594 45.617188 18.183594 C 46.828125 18.445312 47.269531 18.886719 48 19.875 C 48.191406 20.855469 48.191406 20.855469 48.191406 21.984375 C 48.199219 22.40625 48.203125 22.832031 48.207031 23.265625 C 48.207031 23.722656 48.203125 24.175781 48.199219 24.644531 C 48.199219 25.113281 48.203125 25.582031 48.203125 26.066406 C 48.207031 27.054688 48.203125 28.046875 48.195312 29.039062 C 48.1875 30.308594 48.191406 31.574219 48.203125 32.84375 C 48.207031 34.054688 48.203125 35.269531 48.199219 36.480469 C 48.203125 36.933594 48.207031 37.390625 48.207031 37.859375 C 48.207031 38.28125 48.199219 38.703125 48.191406 39.140625 C 48.191406 39.699219 48.191406 39.699219 48.191406 40.269531 C 47.945312 41.542969 47.539062 41.984375 46.5 42.75 C 45.617188 42.941406 45.617188 42.941406 44.628906 42.941406 C 44.261719 42.949219 43.894531 42.953125 43.507812 42.957031 C 43.113281 42.957031 42.714844 42.953125 42.304688 42.949219 C 41.894531 42.949219 41.484375 42.953125 41.058594 42.953125 C 40.191406 42.957031 39.324219 42.953125 38.457031 42.945312 C 37.128906 42.9375 35.800781 42.945312 34.472656 42.957031 C 33.628906 42.957031 32.789062 42.953125 31.945312 42.949219 C 31.347656 42.957031 31.347656 42.957031 30.742188 42.957031 C 30.371094 42.957031 30 42.949219 29.621094 42.941406 C 29.292969 42.941406 28.964844 42.941406 28.632812 42.941406 C 27.421875 42.679688 26.980469 42.238281 26.25 41.25 C 26.058594 40.269531 26.058594 40.269531 26.058594 39.140625 C 26.050781 38.71875 26.046875 38.292969 26.042969 37.859375 C 26.042969 37.402344 26.046875 36.949219 26.050781 36.480469 C 26.050781 36.011719 26.046875 35.542969 26.046875 35.058594 C 26.042969 34.070312 26.046875 33.078125 26.054688 32.085938 C 26.0625 30.816406 26.058594 29.550781 26.046875 28.28125 C 26.042969 27.070312 26.046875 25.855469 26.050781 24.644531 C 26.046875 24.191406 26.042969 23.734375 26.042969 23.265625 C 26.042969 22.84375 26.050781 22.421875 26.058594 21.984375 C 26.058594 21.613281 26.058594 21.238281 26.058594 20.855469 C 26.453125 18.839844 27.667969 18.1875 29.621094 18.183594 Z M 29.621094 18.183594 "/>
<path style=" stroke:none;fill-rule:nonzero;fill:rgb(100%,100%,100%);fill-opacity:1;" d="M 2.210938 44.953125 C 2.609375 44.949219 3.003906 44.949219 3.417969 44.949219 C 4.074219 44.949219 4.074219 44.949219 4.75 44.949219 C 5.207031 44.949219 5.667969 44.949219 6.144531 44.949219 C 7.410156 44.949219 8.675781 44.949219 9.941406 44.949219 C 11.265625 44.949219 12.585938 44.949219 13.90625 44.949219 C 16.128906 44.949219 18.347656 44.949219 20.570312 44.949219 C 23.140625 44.953125 25.710938 44.953125 28.285156 44.949219 C 30.488281 44.949219 32.691406 44.949219 34.894531 44.949219 C 36.210938 44.949219 37.527344 44.949219 38.847656 44.949219 C 40.316406 44.949219 41.785156 44.949219 43.25 44.949219 C 43.691406 44.949219 44.128906 44.949219 44.582031 44.949219 C 45.183594 44.949219 45.183594 44.949219 45.789062 44.953125 C 46.136719 44.953125 46.480469 44.953125 46.84375 44.953125 C 47.625 45 47.625 45 48 45.375 C 48.046875 46.5 48.046875 46.5 48 47.625 C 47.378906 48.246094 46.644531 48.046875 45.789062 48.046875 C 45.390625 48.050781 44.996094 48.050781 44.582031 48.050781 C 43.925781 48.050781 43.925781 48.050781 43.25 48.050781 C 42.792969 48.050781 42.332031 48.050781 41.855469 48.050781 C 40.589844 48.050781 39.324219 48.050781 38.058594 48.050781 C 36.734375 48.050781 35.414062 48.050781 34.09375 48.050781 C 31.871094 48.050781 29.652344 48.050781 27.429688 48.050781 C 24.859375 48.046875 22.289062 48.046875 19.714844 48.050781 C 17.511719 48.050781 15.308594 48.050781 13.105469 48.050781 C 11.789062 48.050781 10.472656 48.050781 9.152344 48.050781 C 7.683594 48.050781 6.214844 48.050781 4.75 48.050781 C 4.308594 48.050781 3.871094 48.050781 3.417969 48.050781 C 2.816406 48.050781 2.816406 48.050781 2.210938 48.046875 C 1.863281 48.046875 1.519531 48.046875 1.15625 48.046875 C 0.375 48 0.375 48 0 47.625 C -0.046875 46.5 -0.046875 46.5 0 45.375 C 0.621094 44.753906 1.355469 44.953125 2.210938 44.953125 Z M 2.210938 44.953125 "/>
</g>
</svg>
